name Walk5.mot
datacolumns 19
datarows 25
range 1.94000000 1.96400000
endheader

                time	   L_ground_force_vx	   L_ground_force_vy	   L_ground_force_vz	   L_ground_force_px	   L_ground_force_py	   L_ground_force_pz	   R_ground_force_vx	   R_ground_force_vy	   R_ground_force_vz	   R_ground_force_px	   R_ground_force_py	   R_ground_force_pz	   L_ground_torque_x	   L_ground_torque_y	   L_ground_torque_z	   R_ground_torque_x	   R_ground_torque_y	   R_ground_torque_z	
          1.94000000	        -26.04389561	        578.86738975	         26.79510132	          0.40916785	          0.00000000	          0.26116411	          0.03753366	          0.07195385	          0.00727676	         -0.00009415	          0.00000000	          0.00029768	          0.00000000	         -1.67999071	          0.00000000	          0.00000000	          0.00016972	          0.00000000	
          1.94100000	        -25.69216266	        577.21023081	         26.77105898	          0.40969147	          0.00000000	          0.26118088	          0.03448911	          0.06449652	          0.00682474	         -0.00008925	          0.00000000	          0.00028372	          0.00000000	         -1.70226152	          0.00000000	          0.00000000	          0.00016290	          0.00000000	
          1.94200000	        -25.35120354	        575.59238331	         26.75821981	          0.41021996	          0.00000000	          0.26119661	          0.03157309	          0.05742953	          0.00638536	         -0.00008443	          0.00000000	          0.00026987	          0.00000000	         -1.72390618	          0.00000000	          0.00000000	          0.00015604	          0.00000000	
          1.94300000	        -25.02075551	        574.01439595	         26.75680856	          0.41075320	          0.00000000	          0.26121133	          0.02878569	          0.05074639	          0.00595921	         -0.00007970	          0.00000000	          0.00025618	          0.00000000	         -1.74490057	          0.00000000	          0.00000000	          0.00014917	          0.00000000	
          1.94400000	        -24.70053473	        572.47683515	         26.76702294	          0.41129105	          0.00000000	          0.26122503	          0.02612652	          0.04443972	          0.00554678	         -0.00007507	          0.00000000	          0.00024269	          0.00000000	         -1.76522099	          0.00000000	          0.00000000	          0.00014233	          0.00000000	
          1.94500000	        -24.39023594	        570.98028138	         26.78903296	          0.41183339	          0.00000000	          0.26123775	          0.02359472	          0.03850135	          0.00514845	         -0.00007055	          0.00000000	          0.00022943	          0.00000000	         -1.78484451	          0.00000000	          0.00000000	          0.00013553	          0.00000000	
          1.94600000	        -24.08953202	        569.52532411	         26.82298029	          0.41238003	          0.00000000	          0.26124950	          0.02118902	          0.03292239	          0.00476454	         -0.00006615	          0.00000000	          0.00021643	          0.00000000	         -1.80374936	          0.00000000	          0.00000000	          0.00012879	          0.00000000	
          1.94700000	        -23.79807350	        568.11255606	         26.86897750	          0.41293084	          0.00000000	          0.26126030	          0.01890779	          0.02769337	          0.00439526	         -0.00006187	          0.00000000	          0.00020372	          0.00000000	         -1.82191521	          0.00000000	          0.00000000	          0.00012214	          0.00000000	
          1.94800000	        -23.51548858	        566.74256805	         26.92710721	          0.41348562	          0.00000000	          0.26127017	          0.01674908	          0.02280430	          0.00404077	         -0.00005773	          0.00000000	          0.00019131	          0.00000000	         -1.83932358	          0.00000000	          0.00000000	          0.00011560	          0.00000000	
          1.94900000	        -23.24138381	        565.41594551	         26.99742083	          0.41404419	          0.00000000	          0.26127913	          0.01471062	          0.01824474	          0.00370116	         -0.00005371	          0.00000000	          0.00017924	          0.00000000	         -1.85595796	          0.00000000	          0.00000000	          0.00010917	          0.00000000	
          1.95000000	        -22.97534565	        564.13326666	         27.07993710	          0.41460637	          0.00000000	          0.26128721	          0.01278989	          0.01400392	          0.00337643	         -0.00004984	          0.00000000	          0.00016752	          0.00000000	         -1.87180403	          0.00000000	          0.00000000	          0.00010288	          0.00000000	
          1.95100000	        -22.71694321	        562.89510169	         27.17464037	          0.41517193	          0.00000000	          0.26129444	          0.01098413	          0.01007075	          0.00306655	         -0.00004611	          0.00000000	          0.00015616	          0.00000000	         -1.88684974	          0.00000000	          0.00000000	          0.00009674	          0.00000000	
          1.95200000	        -22.46573185	        561.70201142	         27.28147886	          0.41574068	          0.00000000	          0.26130084	          0.00929041	          0.00643394	          0.00277144	         -0.00004252	          0.00000000	          0.00014518	          0.00000000	         -1.90108546	          0.00000000	          0.00000000	          0.00009075	          0.00000000	
          1.95300000	        -22.22125760	        560.55454509	         27.40036306	          0.41631237	          0.00000000	          0.26130645	          0.00770558	          0.00308203	          0.00249094	         -0.00003907	          0.00000000	          0.00013458	          0.00000000	         -1.91450424	          0.00000000	          0.00000000	          0.00008493	          0.00000000	
          1.95400000	        -21.98306185	        559.45323696	         27.53116428	          0.41688680	          0.00000000	          0.26131130	          0.00622639	          0.00000347	          0.00222488	         -0.00003577	          0.00000000	          0.00012438	          0.00000000	         -1.92710209	          0.00000000	          0.00000000	          0.00007928	          0.00000000	
          1.95500000	        -21.75068580	        558.39860257	         27.67371330	          0.41746371	          0.00000000	          0.26131544	          0.00484943	         -0.00281335	          0.00197303	         -0.00003261	          0.00000000	          0.00011457	          0.00000000	         -1.93887810	          0.00000000	          0.00000000	          0.00007381	          0.00000000	
          1.95600000	        -21.52367427	        557.39113527	         27.82779895	          0.41804286	          0.00000000	          0.26131889	          0.00357123	         -0.00538004	          0.00173514	         -0.00002961	          0.00000000	          0.00010516	          0.00000000	         -1.94983469	          0.00000000	          0.00000000	          0.00006853	          0.00000000	
          1.95700000	        -21.30157882	        556.43130358	         27.99316685	          0.41862402	          0.00000000	          0.26132170	          0.00238820	         -0.00770817	          0.00151092	         -0.00002674	          0.00000000	          0.00009616	          0.00000000	         -1.95997758	          0.00000000	          0.00000000	          0.00006344	          0.00000000	
          1.95800000	        -21.08396025	        555.51954958	         28.16951808	          0.41920695	          0.00000000	          0.26132390	          0.00129674	         -0.00980923	          0.00130006	         -0.00002402	          0.00000000	          0.00008756	          0.00000000	         -1.96931595	          0.00000000	          0.00000000	          0.00005854	          0.00000000	
          1.95900000	        -20.87039086	        554.65628780	         28.35650829	          0.41979139	          0.00000000	          0.26132552	          0.00029318	         -0.01169458	          0.00110221	         -0.00002143	          0.00000000	          0.00007936	          0.00000000	         -1.97786242	          0.00000000	          0.00000000	          0.00005384	          0.00000000	
          1.96000000	        -20.66045657	        553.84190403	         28.55374716	          0.42037709	          0.00000000	          0.26132658	         -0.00062616	         -0.01337544	          0.00091702	         -0.00001899	          0.00000000	          0.00007155	          0.00000000	         -1.98563306	          0.00000000	          0.00000000	          0.00004933	          0.00000000	
          1.96100000	        -20.45375897	        553.07675363	         28.76079841	          0.42096383	          0.00000000	          0.26132712	         -0.00146497	         -0.01486284	          0.00074410	         -0.00001668	          0.00000000	          0.00006414	          0.00000000	         -1.99264736	          0.00000000	          0.00000000	          0.00004502	          0.00000000	
          1.96200000	        -20.24991710	        552.36115909	         28.97718057	          0.42155133	          0.00000000	          0.26132716	         -0.00222692	         -0.01616761	          0.00058308	         -0.00001451	          0.00000000	          0.00005712	          0.00000000	         -1.99892817	          0.00000000	          0.00000000	          0.00004091	          0.00000000	
          1.96300000	        -20.04856883	        551.69540743	         29.20236844	          0.42213936	          0.00000000	          0.26132671	         -0.00291568	         -0.01730035	          0.00043355	         -0.00001246	          0.00000000	          0.00005048	          0.00000000	         -2.00450162	          0.00000000	          0.00000000	          0.00003699	          0.00000000	
          1.96400000	        -19.84937195	        551.07974833	         29.43579528	          0.42272767	          0.00000000	          0.26132581	         -0.00353485	         -0.01827141	          0.00029509	         -0.00001054	          0.00000000	          0.00004421	          0.00000000	         -2.00939710	          0.00000000	          0.00000000	          0.00003326	          0.00000000	
